# xmcd CD database file
#
# Track frame offsets:
#	150
#	13042
#	25377
#	37965
#	46305
#	57564
#	65931
#	91285
#	105828
#	119853
#	141665
#	156043
#	168285
#	181929
#	197318
#	206535
#	224041
#	236749
#
# Disc length: 3327 seconds
#
# Revision: 0
# Processed by: cddbd v1.5.1PL0 Copyright (c) Steve Scherf et al.
# Submitted via: CDex 1.51
#
DISCID=0a0cfd12
DTITLE=Duke Ellington - Mood Indigo CD2
DYEAR=2004
DGENRE=Jazz
TTITLE0=Take The "A" Train
TTITLE1=Ain't Misbehavin'
TTITLE2=Caravan
TTITLE3=Do Nothing Till You Hear From Me (Concerto For Cootie)
TTITLE4=How High The Moon
TTITLE5=Tea For Two
TTITLE6=One O'Clock Jump
TTITLE7=Rockin' In Rhythm
TTITLE8=Passion Flower
TTITLE9=Everything Goes
TTITLE10=The Mooche
TTITLE11=Pretty Woman
TTITLE12=Jam With Sam
TTITLE13=Just Squeeze Me
TTITLE14=Tip Toe Topic
TTITLE15=Transblucency
TTITLE16=Double Ruff
TTITLE17=Ring Dem Bells
EXTD=YEAR: 2004
EXTT0=
EXTT1=
EXTT2=
EXTT3=
EXTT4=
EXTT5=
EXTT6=
EXTT7=
EXTT8=
EXTT9=
EXTT10=
EXTT11=
EXTT12=
EXTT13=
EXTT14=
EXTT15=
EXTT16=
EXTT17=
PLAYORDER=
